<svg id="Capa_1" data-name="Capa 1" xmlns="http://www.w3.org/2000/svg" viewBox="0 0 3074.06 597.82"><defs><style>.cls-1{fill:#cecece;}.cls-2{fill:#007a87;}.cls-3{fill:#a1c98a;}.cls-4{fill:#6bb248;}.cls-5{fill:#9dca87;}.cls-6{fill:#6fa5b0;}.cls-10,.cls-7,.cls-9{font-size:33.93px;}.cls-7,.cls-9{fill:#5e5f61;}.cls-10,.cls-7{font-family:BigRiverSample, Big River Sample;}.cls-8,.cls-9{font-family:MicrogrammaNormal, Microgramma;}.cls-10{fill:#5a5a5a;}.cls-11{letter-spacing:0.01em;}.cls-12{letter-spacing:-0.06em;}.cls-13{letter-spacing:-0.01em;}.cls-14{letter-spacing:-0.01em;}</style></defs><path class="cls-1" d="M1467.06,561.16c0,18.43-223,33.37-498.15,33.37s-498.15-14.94-498.15-33.37,223-33.36,498.15-33.36S1467.06,542.74,1467.06,561.16Z" transform="translate(-452.94 -180.81)"/><path class="cls-2" d="M980.82,529.67v21.82q11.26,10,22.54,20l9.18-11.87-31.72-30m3.34-68.36c-1.11,2.8-2.23,5.6-3.34,8.41v44.51q9.6-26.46,19.2-52.92Zm-55.93,98.33c-20,5.93-33.39-11-33.39-11s-.12-.22-.33-.64a135.47,135.47,0,0,1-13,9.82,61.27,61.27,0,0,0,14.84,13.06,30.78,30.78,0,0,0,8.89,4.23,37.56,37.56,0,0,0,9,.84c6.56.09,13.2.16,19.58-1.44,8.48-2.13,15.76-7,22-13.32V533.61c-3.46,6.89-12.4,21.54-27.54,26m27.54-100.49V420.27a37.54,37.54,0,0,0-7.3-8.39c-11.6-10-28.87-12.13-42.75-6.12-14.79,6.41-23,21.25-21.83,37.58,0,.31,0,.63.08,1,1.28,13.13,8.48,25.25,18.3,33.91a56.67,56.67,0,0,0-29,33.66,51.92,51.92,0,0,0-1.71,22.37,76,76,0,0,0,17.6-16.7c1.68-10.48,8-21.42,24.06-29.1l42.56,40V506.62q-12.94-12.51-25.92-25a50.19,50.19,0,0,0,25.92-22.46m-12.54-7.75c-3.74,9.49-12.48,16.47-22.2,19.09a5.34,5.34,0,0,1-2.44.22,5.16,5.16,0,0,1-2-1.1c-7.07-5.34-13.12-12.67-15.68-21.08a29.15,29.15,0,0,1-1.25-6.85c-1.2-19.75,23.66-32.71,38.2-18.6,7.27,7.06,9.14,18.86,5.4,28.32" transform="translate(-452.94 -180.81)"/><path class="cls-3" d="M980.82,514.23c-1.39,3.83-2.79,7.67-4.17,11.5l4.17,3.94v21.82L970,541.86a93.27,93.27,0,0,1-14.22,19.31V533.61c1.13-2.22,1.68-3.64,1.68-3.64l-1.68-1.57V506.62q3.78,3.61,7.52,7.24,8.76-22.07,17.53-44.15Z" transform="translate(-452.94 -180.81)"/><path class="cls-4" d="M957.45,530s-.55,1.41-1.67,3.64V528.4Z" transform="translate(-452.94 -180.81)"/><path class="cls-4" d="M976.65,525.73c1.38-3.83,2.78-7.67,4.17-11.5v15.44l-4.17-3.94" transform="translate(-452.94 -180.81)"/><path class="cls-4" d="M970,541.85l10.83,9.64v23.4H955.77V561.17A93.06,93.06,0,0,0,970,541.85" transform="translate(-452.94 -180.81)"/><path class="cls-5" d="M957.92,454.83a44.53,44.53,0,0,1-2.15,4.32V420.27a34.79,34.79,0,0,1,5.68,17.5,39.57,39.57,0,0,1-3.53,17.06" transform="translate(-452.94 -180.81)"/><path class="cls-4" d="M1131.9,309.57V574.9h-25V455.37h-126v14.34q-8.76,22.08-17.53,44.15-3.75-3.62-7.52-7.24V459.15a46.94,46.94,0,0,0,2.15-4.32,39.57,39.57,0,0,0,3.53-17.06,34.79,34.79,0,0,0-5.68-17.5V309.57h25.05V428.25h126V309.57Z" transform="translate(-452.94 -180.81)"/><path class="cls-6" d="M894.51,548a135.47,135.47,0,0,1-13,9.82c-.54-.68-1-1.38-1.57-2.09a48.72,48.72,0,0,1-8.38-21.48,76.31,76.31,0,0,0,17.61-16.7C886.87,531.7,893,545,894.51,548" transform="translate(-452.94 -180.81)"/><path class="cls-2" d="M894.42,508.35h31.72A133.85,133.85,0,0,1,894.51,548c-1.52-3-7.64-16.28-5.35-30.45a36.21,36.21,0,0,0,5.26-9.18" transform="translate(-452.94 -180.81)"/><path class="cls-2" d="M702.44,421C690.75,505.81,755,541.41,755,541.41s39.23,24.59,85.13,8.48a127.37,127.37,0,0,0,31.39-15.66,48.72,48.72,0,0,0,8.38,21.48c.52.71,1,1.41,1.57,2.09-14.77,9.8-26.31,13.28-26.31,13.28-32.55,16.11-84.31,3.39-84.31,3.39s-76-22-93.49-97.49,26.72-124.6,26.72-124.6,45.91-60.19,121-49.17S927.4,375.69,927.4,375.69H895.68s-29.23-50-96-48.32c0,0-85.55,8.9-97.24,93.67" transform="translate(-452.94 -180.81)"/><text class="cls-7" transform="translate(344.49 593.18) scale(0.98 1)">NIT. 900986234<tspan class="cls-8" x="272.06" y="0">-</tspan><tspan x="288.38" y="0">2</tspan></text><text class="cls-9" transform="translate(285.45 457.24)">TRIBUTARIAS S.AS</text><text class="cls-10" transform="translate(207.15 499.33)"><tspan class="cls-11">C</tspan><tspan x="23.61" y="0">onsu</tspan><tspan class="cls-12" x="106.9" y="0">l</tspan><tspan x="123.22" y="0">tori</tspan><tspan class="cls-13" x="194" y="0">a</tspan><tspan x="214.59" y="0">s, </tspan><tspan class="cls-14" x="255.67" y="0">a</tspan><tspan x="276.27" y="0">sesori</tspan><tspan class="cls-14" x="385.27" y="0">a</tspan><tspan x="405.87" y="0">s juridic</tspan><tspan class="cls-14" x="558.27" y="0">a</tspan><tspan x="578.86" y="0">s </tspan><tspan x="189.65" y="40.71">y aduaner</tspan><tspan class="cls-14" x="368.62" y="40.71">a</tspan><tspan x="389.21" y="40.71">s </tspan></text><path class="cls-1" d="M3527,494.59c0,22.3-269.89,40.38-602.8,40.38s-602.81-18.08-602.81-40.38,269.89-40.37,602.81-40.37S3527,472.29,3527,494.59Z" transform="translate(-452.94 -180.81)"/><path class="cls-2" d="M2938.61,456.48v26.4l27.27,24.23L2977,492.74q-19.18-18.12-38.38-36.26m4-82.73c-1.34,3.4-2.7,6.78-4,10.18v53.86q11.61-32,23.23-64Zm-67.68,119c-24.24,7.19-40.4-13.33-40.4-13.33s-.15-.27-.41-.77a163.4,163.4,0,0,1-15.74,11.88,74.21,74.21,0,0,0,18,15.8,37.5,37.5,0,0,0,10.76,5.13,46,46,0,0,0,10.88,1c7.94.1,16,.2,23.69-1.74,10.26-2.58,19.08-8.51,26.59-16.13V461.25c-4.19,8.34-15,26.07-33.33,31.49m33.33-121.59v-47a45.67,45.67,0,0,0-8.84-10.16c-14-12.05-34.93-14.68-51.73-7.4-17.9,7.76-27.88,25.71-26.42,45.47,0,.38.06.77.1,1.16,1.56,15.89,10.27,30.54,22.14,41-16.44,8.11-29.69,23-35.1,40.74a62.72,62.72,0,0,0-2.07,27.06,91.93,91.93,0,0,0,21.31-20.21c2-12.67,9.62-25.92,29.1-35.2L2908.3,455V428.58q-15.68-15.12-31.37-30.26a60.78,60.78,0,0,0,31.37-27.17m-15.18-9.38c-4.53,11.48-15.09,19.92-26.86,23.09a6.51,6.51,0,0,1-3,.28,6.44,6.44,0,0,1-2.46-1.34c-8.55-6.45-15.87-15.33-19-25.51a35.37,35.37,0,0,1-1.51-8.28c-1.45-23.91,28.63-39.58,46.22-22.51,8.8,8.54,11.07,22.81,6.54,34.27" transform="translate(-452.94 -180.81)"/><path class="cls-3" d="M2938.61,437.79l-5.05,13.93,5.05,4.76v26.4l-13.11-11.65a112.41,112.41,0,0,1-17.2,23.36V461.25c1.36-2.69,2-4.4,2-4.4l-2-1.91V428.58l9.1,8.77q10.59-26.72,21.21-53.42Z" transform="translate(-452.94 -180.81)"/><path class="cls-4" d="M2910.33,456.84s-.67,1.71-2,4.41V455Z" transform="translate(-452.94 -180.81)"/><path class="cls-4" d="M2933.56,451.72q2.52-7,5.05-13.93v18.69l-5.05-4.76" transform="translate(-452.94 -180.81)"/><path class="cls-4" d="M2925.5,471.22l13.11,11.66V511.2H2908.3V494.59a112.21,112.21,0,0,0,17.2-23.37" transform="translate(-452.94 -180.81)"/><path class="cls-5" d="M2910.9,365.91a55.47,55.47,0,0,1-2.6,5.24v-47a42.15,42.15,0,0,1,6.87,21.17,47.84,47.84,0,0,1-4.27,20.64" transform="translate(-452.94 -180.81)"/><path class="cls-4" d="M3121.43,190.14V511.21h-30.3V366.57H2938.61v17.35q-10.61,26.73-21.21,53.43l-9.1-8.77V371.15a56.53,56.53,0,0,0,2.6-5.23,47.91,47.91,0,0,0,4.27-20.65,42.15,42.15,0,0,0-6.87-21.17v-134h30.31V333.75h152.52V190.14Z" transform="translate(-452.94 -180.81)"/><path class="cls-6" d="M2834.16,478.64a163.4,163.4,0,0,1-15.74,11.88c-.65-.82-1.27-1.66-1.9-2.53a59,59,0,0,1-10.14-26,92.22,92.22,0,0,0,21.32-20.21c-2.78,17.15,4.62,33.22,6.46,36.86" transform="translate(-452.94 -180.81)"/><path class="cls-2" d="M2834.06,430.68h38.39a162.16,162.16,0,0,1-38.29,48c-1.84-3.64-9.24-19.7-6.46-36.86,4.9-6.62,6.36-11.1,6.36-11.1" transform="translate(-452.94 -180.81)"/><path class="cls-2" d="M2601.75,325c-14.15,102.58,63.63,145.66,63.63,145.66s47.48,29.75,103,10.26c16.26-5.7,28.63-12.37,38-19a59.13,59.13,0,0,0,10.14,26c.63.86,1.25,1.7,1.9,2.52-17.87,11.86-31.83,16.07-31.83,16.07-39.39,19.49-102,4.11-102,4.11s-91.91-26.68-113.14-118,32.33-150.78,32.33-150.78,55.56-72.83,146.47-59.5S2874,270.15,2874,270.15h-38.38s-35.36-60.52-116.17-58.47c0,0-103.52,10.77-117.66,113.35" transform="translate(-452.94 -180.81)"/></svg>