<?xml version="1.0" encoding="UTF-8"?>
<svg id="Capa_2" data-name="Capa 2" xmlns="http://www.w3.org/2000/svg" viewBox="0 0 253.78 152.2">
  <defs>
    <style>
      .cls-1 {
        fill: #4c5b66;
      }
    </style>
  </defs>
  <g id="Graphic_Elements" data-name="Graphic Elements">
    <g>
      <path class="cls-1" d="m32.46,14.34l-3.69-3.19-3.84-3.09-3.28-1.74-2.62-.79-3.47.79-.84.89-2.25-.37-.94,1.03,1.12,1.31.09,1.78.94.28-.47,1.41-1.69-1.78-2.91.84v1.41l.84,1.22,1.78.56c1.03-.37-.19.94-.19.94,0,0-3.22,1.31-3.2,1.03.01-.28-1.48.94-1.48.94v1.78l-.94.84.66,1.41.94,1.59,1.97.75-.28,1.5-3.84,2.34h-2.81l-2.06,2.03,2.25-1.09,3.09-.19,5.44-2.21,1.97-.97.47-2.62,2.25-.28v1.5l3.65.47,2.44,1.31,1.97,2.91,1.31,4.97.28,7.03.56,4.22-2.72,4.69-1.5,6.19,1.22,4.03,1.69,2.06.75,4.22,1.03,3.56-.28,1.69,1.87,2.25-.75-2.91-.84-4.31-.19-2.91,1.41,1.12v2.06l1.5,2.62,2.34,5.25-.47,2.16,1.72,1.87h1.28l1.41,1.5,2.06.94,1.87-.47,1.97,2.25h2.53l1.69,3,2.53,2.44,1.87,1.03,1.31-1.31.94.37.66,1.33-.66,4.11-2.16,2.72.37,2.16-1.03,1.31.47,2.16h.94l2.06,4.97,2.25,3.09,4.12,2.44.66,4.31.84,11.15-.66,3.94.66,3.09,1.31,3.47v4.59l1.69,3.37,2.81,2.62h4.12l-3.47-2.25-.47-2.34,1.41-3.19-1.5-2.16,1.31-1.78-.47-2.81,1.69-.56.47-2.16,2.53-.84.75-2.06-1.97-2.25,3.28.75,1.78-3.56,1.97-3.19v-1.97l1.5-1.97,1.78-.84,2.06-.47.75-2.34,1.03-2.91v-2.81l2.44-3,.47-2.72-.75-1.78-1.87.19-2.34-1.59-3.28-.09-1.69-1.78-3.47-.56.75-1.5-1.12-2.72-2.72-1.41h-2.34l-2.44-2.53-1.97-1.5-1.69.56-1.31-.75-1.69.47-1.22-1.59-1.12,1.03-2.06-.19-1.97,1.97-1.59-.66-2.16.47-1.69-.75-.75-2.06.56-3-1.78-.19-2.16-.84,1.03-1.97.94-2.16-.56-1.22-1.41.75-.94.94-1.78,1.31-2.81-.37-1.22-3.84.84-2.91,1.41-2.91,1.5-.84s2.06-.66,2.06-.37,1.5.94,1.5.94l1.12-1.12,1.69.19,1.5.28,1.31-.09.84,1.41-.37,1.5.75,1.59.37.84,1.12-1.69-.84-3.56,3.09-3.75,2.44-.84,2.16-4.22,2.06-1.59,1.87-.75.56-1.59,2.62-1.12.75,1.41,2.53-.84,1.59-1.5-2.25-1.59v-2.25l-.56-1.12,3.84-.28,3.19-.09s-1.97,2.25-1.97,2.53.47.75.47.75l3.56,1.22-.37-2.34h-1.78l1.31-2.25-.09-3.37-2.25-2.62-.75-3.75-.56-1.22-1.97,2.16-1.78-.66.09-2.91-2.06-2.34-2.44-.56-.84,3.19-1.22,1.5.66,1.69-.56,2.62-2.34.75-.28,1.97-1.31,1.5-1.22-1.22.94-3.47-2.06-.66-3-2.44-1.22.09-.19-4.31,2.62-3.41,4.5-1.47,1.78-2.53,1.31.5,2.06-.5,1.08-3.33-1.76-.88s-.45,1.59-.73,1.59l-1.83,1.36-.23-1.17.61-1.31-.7-.61-.89,1.41-.23-2.53.09-2.39-.75-1.27-1.64,1.12-.19,1.59.56,1.08-.14,1.55-1.83,1.22-.47-1.64-1.08-.09-.09.75-1.83-.47-1.87-.98-.56-1.12-1.27.09-.61,2.11-.84-1.12-.75-.66-2.81-.56.8-.61-.19-1.08-1.08-.66-2.44-2.01-2.39-.37-2.44-2.01-2.81.28-1.09,1.03Z"/>
      <path class="cls-1" d="m65.55,15.7l-2.44.94-.75,2.2v1.36l1.59.37,2.67,1.17s1.78-.19,1.92-.23c.14-.05.98,1.55.98,1.55l1.5,2.39v1.27l-1.87,1.08-.33,1.12h-1.69l-1.22.66.42.94,1.83-.84.75,1.12,1.17,1.97,2.34,1.55h.56l-1.12-2.34.84.09.8,1.36,1.03-.89v-1.27l-1.5-2.01.8-.94,1.08,1.12.52,1.22,1.31-1.08.98-1.69-1.12-.28-1.59-1.97-.37-.63.14-1.66-2.58-2.44-1.22-1.87-.61-1.87-1.78-.28-.75-.56-1.92.66-.37,2.01-.75-.37.47-1.87,1.36-1.03h-1.08Z"/>
      <path class="cls-1" d="m43.44,8.11l.19,1.83-1.41.23-1.03,1.41.37,1.78h1.36l2.91-1.41-.37.8-.8.61,1.17.75-1.22.33.19.52,2.72,1.03-.23.56-1.64-.84-1.29.37v.75l.87.52.66.7-.19.66.37.47,1.45.33h2.3l.98-.56.94,1.12h1.36l1.03-.75.47-.89-1.17-1.03s-.56-.75-.42-.75.56-.23.56-.23l.14-2.53-1.12-.98-.61.75v1.17l-.8-.52-.19-1.5-.75-.09-1.64-.28.14-.98-.56-.94-1.27-1.36-.94.33-.75-1.36h-1.78Z"/>
      <polygon class="cls-1" points="51.45 4.57 49.59 4.01 48.39 4.74 46.39 4.99 46.04 5.83 47.34 6.54 48.74 6.32 49.48 7.38 48.74 7.56 48.74 8.11 50.04 8.82 50.68 8.5 50.99 9.38 50.19 9.38 50.15 9.91 50.89 10.4 52.05 10.65 53.24 10.05 54.75 10.65 55.77 9.66 55.56 8.68 54.59 8.26 54.86 7.13 53.73 7.33 53.77 8.11 53.7 9.03 52.33 8.96 51.94 7.33 50.91 6.47 50.04 6.85 48.92 5.73 49.73 5.1 50.4 5.9 51.13 5.53 51.45 4.57"/>
      <path class="cls-1" d="m68.07,3.09l4.04-.26,1.86.97,2.07-.48,2.18.48,4.53,1.44.88.6-1.02.49-1.41.14-.67.67-1.86.53-1.27.88h-3.48v.56l1.19.42-.32.7-1.58.42-.77.6h-.91l.81.84-.46.63-1.85-.53-4.58-1.55-1.23.42.21,1.02,1.09.63,2.04.49,1.62-.28,1.34,1.15-.21.78-.98.35-2.28-.56-2.42-.77-.88.46s-1.09-1.37-1.09-1.48.42-1.86.42-1.86l-1.16-.35-.6-1.27,1.44-.36.7.99,1.2.28,1.44-.21,1.3-.11-.25-.6,1.02-.36.63.89.91.74h.84l.04-.88-.74.14-.56-.53.28-.6-1.55-.39.7-.81,1.55.52.35-.41-.84-1.37.53-.35,1.02.6.46.76.69.33v-.67l1.53-.32.81-.53-.04-.81-.7.04-.95.67-1.62-.35-.88-.46-.74.14-.95-.11-.28-.88v-.77l-.7-.25.11-.28Z"/>
      <path class="cls-1" d="m57.18,13.25l-.53,1.16h-.88l-.25,1.05.83.74s.26,1.34.3,1.16,1.16-.63,1.16-.63c0,0,.77-.46.77-.56s-.32-1.55-.32-1.55l1.02-.32-.21-1.05h-1.9Z"/>
      <polygon class="cls-1" points="59.74 14.65 59.53 15.7 60.13 16.48 60.8 16.48 62.37 15.92 63.61 14.83 61.57 14.08 59.74 14.65"/>
      <polygon class="cls-1" points="56.28 19.56 54.85 20.62 56.98 21.62 56.98 20.59 56.28 19.56"/>
      <polygon class="cls-1" points="58.85 9.61 58.85 10.75 58.41 11.71 59.53 12.11 60.35 11.6 60.61 10.43 60.47 9.61 59.74 9.21 58.85 9.61"/>
      <polygon class="cls-1" points="58.41 4.52 58.97 4.97 59.13 5.41 58.41 5.32 58.41 5.72 60.24 5.95 60.77 6.96 61.33 7.08 61.57 5.8 59.72 4.24 58.55 4.01 58.41 4.52"/>
      <path class="cls-1" d="m62.11,6.19l.42.56-.61.33.61.68s1.73-.36,1.66-.43c-.07-.06-.59-1-.59-1l-.91-.68-.59.54Z"/>
      <polygon class="cls-1" points="66.33 2.98 67.8 5.13 68.93 5.95 68.76 6.7 68.2 7.33 66.89 7.75 65.98 7.87 64.55 6.32 65.84 6.11 66.05 5.53 65.06 5.65 64.06 5.42 64.06 4.19 65.39 4.17 65.23 3.37 66.33 2.98"/>
      <path class="cls-1" d="m61.33,11.63l-.88.48.44.75s1,.56,1.04.39c.04-.18.18-1.14.18-1.14l-.77-.48Z"/>
      <polygon class="cls-1" points="54.16 13.53 53.49 12.46 54.37 12.11 55.21 12.65 54.16 13.53"/>
      <path class="cls-1" d="m53.1,4.85l.39.8s1.35-.05,1.36-.11c.01-.06.93-1.68.93-1.68l-.93-.49-1.36.46-.39,1.02Z"/>
      <path class="cls-1" d="m61.92,27.24c-.18.11-1.9,2.57-1.9,2.57l.59.25v.77l.96-.56.8-.74.47.39.6.63,1.09-.11-.91-1.41v-.63l-1.69-1.16Z"/>
      <polygon class="cls-1" points="68.01 26.03 68.16 25 69.19 24.74 69.7 25.23 69.26 25.87 68.51 26.29 68.01 26.03"/>
      <polygon class="cls-1" points="81.57 9.21 79.95 9.81 77.74 9.95 76.54 10.33 76.86 11 77.74 11.84 79.06 11.84 79.71 12.27 78.48 12.27 77.6 12.46 76.4 12.11 76.86 12.82 77.74 13.25 78.76 13.28 78.51 13.53 77.21 13.53 77 14.08 77.53 14.27 78.05 15.22 78.99 15.22 80.23 14.83 81.32 15.28 82.41 16.2 82.69 17.99 83.36 18.42 83.85 20.06 83.85 21.23 83.29 21.79 83.22 22.77 83.85 22.95 84.31 21.93 84.94 22.95 85.15 24.04 85.43 25.34 84.7 26.56 83.64 27.8 82.87 29.77 83.01 31.73 83.26 33.98 83.64 35.74 84.8 37.32 85.96 37.32 86.49 38.38 87.72 38.73 87.72 38.06 89.05 35.95 90.39 33.6 91.06 32.23 92.74 31.88 94.5 31.52 95.91 29.87 96.89 29.03 98.58 29.03 100.65 28.43 102.62 26.85 101.14 26.56 99.63 26.01 100.33 25.34 101.85 25 102.2 25.97 103.74 26.29 103.74 25.2 103.36 24.11 101.67 23.44 100.79 22.07 101.92 22.46 102.09 21.44 103.36 22.07 104.76 22.25 105.11 21.62 103.95 21.05 104.76 20.28 105.54 19.33 105.36 18.49 104.34 17.61 105.04 17.15 106.7 17.82 106.7 16.76 106.31 16.8 105.89 16.97 105.22 16.48 105.47 15.92 106.1 16.17 106.1 15.7 105.36 15.22 105.43 14.08 106.31 13.28 107.08 13.28 106.73 12.11 108.28 11.63 109.02 10.96 110.07 10.66 109.44 10.09 107.47 9.98 107.12 10.66 105.57 10.02 104.87 11.18 103.5 11.88 104.17 10.47 105.11 9.84 104.31 9.02 103.85 9.21 103.67 9.98 102.41 10.23 101.67 10.66 101.62 10.24 102.48 9.72 102.6 9.14 100.99 9.58 99.25 9.81 98.75 10.14 98.65 9.72 99.67 9.24 99.51 8.26 101.51 8.8 104.2 8.43 103.29 8.03 103.39 7.22 102.5 6.71 98.45 6.32 97.58 6.01 97.07 6.43 96.28 6.32 95.77 6.54 96.21 7.35 94.22 6.77 94.22 6.1 93.13 6.32 92.6 7.06 93.62 7.4 93.89 7.73 92.8 7.87 92.76 8.59 92.11 8.36 91.44 7.47 90.69 7.38 90.02 6.75 89.28 7.13 89.74 8.14 88.49 7.64 87.72 8 87.19 6.71 84.7 6.64 83.27 6.94 83.03 7.94 81.94 7.87 80.95 7.94 79.88 8.4 80.16 9.02 81.57 9.21"/>
      <polygon class="cls-1" points="110.07 45.16 111.69 44.74 112.11 45.58 111.76 47.58 110.84 48.64 109.33 48.81 108.49 48.43 109.54 46.78 108.77 46.07 109.37 45.58 110.07 46.04 110.07 45.16"/>
      <polygon class="cls-1" points="172.37 3.98 172.93 4.57 173.09 6 173.47 6.19 173.84 5.58 175.09 5.08 175.09 4.26 173.91 3.73 172.46 3.73 172.37 3.98"/>
      <polygon class="cls-1" points="168.29 3.21 166.79 4.08 166.39 5.22 166.89 5.55 170.45 5.44 171.99 5.13 171.62 3.42 170.79 3.21 169.79 3.91 169.56 3.09 168.29 3.21"/>
      <polygon class="cls-1" points="197.72 .91 198.39 1.79 196.8 1.58 196.1 2.21 196.1 3.44 198.14 4.32 198.81 3.3 199.69 2.62 199.69 1.3 200.74 2.21 202.18 1.62 204.54 1.55 205.7 .32 204.64 0 203.52 .49 201.62 .39 200.21 .42 199.16 .88 198.25 .7 197.72 .91"/>
      <polygon class="cls-1" points="200.18 5.55 200.9 4.32 202.43 4.78 202.43 5.31 200.18 5.55"/>
      <path class="cls-1" d="m238.48,7.17l-.68-.45,1.17-.23.16-1.71-1.12-.56h-2.13l-.89.14-.75-.59-1.83-.16-2.83-.78-.68-.86-1.66.3-3.05.77-.96-.22-1.01.66.44.7.73.37.23.98-.35.16-1.59-.3-.84-.63-.14.49-2.16.68-1.05.54-.23.7-1.69-.87.05-1.12-1.62-.26-1.27.28-1.5,1.1-.3.63-1.97-.49-1.52.02.3-.61-.91-.4-.96.28.09,1.05-.26.75-.66-.37-.26-1.17-2.37.14-1.55.54-.33,1.05.68.02.09.87-.05.87h-1.29l-1.1-.12-.02.54.37.4-.7-.12-.77.14-.87-.82-.23.77.61.84-.21.47-1.22-.3-2.72-.98-.89-.05.26-.35.61-.47.49-.8-.91-.42-1.38.33-1.45-.3-.23.63-.28.63.91.35-.21.14-1.01.28-1.71.59-.23-.61-.98.12-1.69.56-.89-.35-.7.26-1.17.09-.19.66.12.37-.73.3-.94.66-.45.59-.63.23.77-1.52,1.78-1.85,1.17-.89-.14-1.31-.91-.47,1.01-.21-.28-.82-1.69-.56-1.19.49-1.83.52-.77.14-.77-.16-.3-1.29-.63-.16-.37,1.03-.3,1.01.66.61.63-.23-.19.52h-1.15l-.98.35.96.84-1.62.28-.59-.42-2.46,1.8-1.12.33-.4.84-.66.52.28.96.82.66-.63,1.17-.28-1.05-.7.49-1.59.49-.63.52.33.87.53.71,1.79.39.63,1.37-.04.77.77,1.02-.49.35-.98-1.09-.21-1.65-1.62-.6-1.44-.74-.63.28.42,1.02-1.09-.28-.91-.91-.32.28.28.42-.53.88-.11.98.91.95-.07.81.35.46.04.67.46.42,1.27-.56,1.27.77.39.98,1.55.67-.6.21-1.23-.46-.67-1.27-.77-.42-.67.77.39,1.16-.39.94-.53,1-2.21.11.6-.6.49.11.67-.61.32-1.5v-.88l-1.12-1.23-.53-2-.91-.49.25-1.62-1.09-.42-1.23-.11-.18,1.37.28,1.05-.98.35-.18.56.67.49-.21.67.14.84.77-.04.88.88.32,1.16-1.51-1.05-1.09.04-1.19-.74-.56.21-1.3.07-2.39-.84-1.79-1.23.21-1.86.98-2.39,2.07-1.86,1.76-1.19.88-.39.11-1.44-1.09.18-.25.74-2.46.98-1.72,1.16-.49.88-.6.07.07.42.28.32-.53,1.09-.6,1.41.14,1.23-1.05.39.39,1.09,1.12.07.39.49,1.44.04,2.99,1.05.35,1.16-.77-.07-1.3.21-1.44.95-.74.28.6-1.69-.67.32-.49.83-1.86.71-.67,1.19v.74l-1.16-.21-.7-.56.53-.67.49.32-.32-.98-1.16-.07-.74-.07.18.91.7,1.16.18.77.18.7-1.3-.7h-.35l-.32.63-.77.63.67.88-1.05.49-1.02-.6-.7.11,1.05.88.39.53-1.09.32-1.41-.88-.28-1.44-1.09-.7-1.09-1.12.98.21,1.23.53,2.32.56,1.3-.6.18-1.09-1.02-1.09-2.74-1.27-1.51.14-.84-.81-.95.44-2.25-1.53-1.97.56-.42.97-.56-.94-.7.14-.7,1.02-1.37.39-.98,1.19-.92,1.97-1.12,2.5-4.22,3.37-.49,2.53.56,2.6,1.41.49,2.32-1.97.42,1.97,1.12,2.18-1.3.95-.77-3.2-.84.63.14.95-.95.56.21,1.3.6.98-1.51.49-1.41,1.12-.53,1.48-2.81,2.18-1.12-.84,2-1.12.14-1.48-1.16-1.23-1.97-2.74.77-1.37-1.12-1.02.39-.91-1.44.42-.81.98v1.55l.74,1.41,1.05.21-.21,1.65-.6.74-.67,1.12,1.51.35-1.23.6.18.53,1.37-.14.6.81.25.7-.39.32-1.27-.25-.32.7.56.42,1.16.56,1.05,1.51v.81l-.77,1.83h-3.37l-1.12-.42-1.16.6v1.86l-.28,2.07v1.72l.39.56,1.16-.21,1.05.77-.32,1.27-.95.98-1.76,1.19-.28,1.97v1.02l-1.44.88-1.16.25-.49,1.02-.91.81v.91l-.91.74-.39,1.16-.81.88.21.84.67.35-.39.67.46,1.23-.28.91-.07,1.09-.77.56.42.84.14,1.41.95.46,1.69,2.46.63,1.58h.98l2.88,2.39h.98l1.69-.95,1.33.18,1.41.39,1.41-.77,3.06-.77,1.12,1.02.49.67,2.07-.14.98.63.28,1.16-.91,2.88.14,1.19,1.65,1.3.67,1.37.7.63.42,1.62-.32.95.84,1.55-.25.98-1.34,1.93-.35,2.14.11,1.44.91.88.18.98.49.74.49,2.64.46,1.58v1.16l.77.81.53,1.93.81.7v.81l-.32.46.32.84v.56l1.72.84.84-.56,1.41-.21,2.57-.21,1.58-1.23,1.83-1.62.91-1.65.98-.81.18-2.04,1.9-.98.6-1.86-.46-2.07,1.05-1.58,1.58-1.37,1.62-.49.98-1.16-.28-.63.28-1.37v-1.9l-.95-1.86.14-1.55-.35-.84.7-1.41,1.05-2,.74-.18.56-1.05,4.18-3.83,1.44-2.11v-1.12l.91-1.62.25-1.65-.46-.39-1.51.6-1.19.04-.46.49-.84.04-.88.46-.91-.28-.6-1.05.32-.6-.74-.67-2.53-1.83-.84-2.04-1.05-.74-.56-2.81-1.55-1.72.39-.42s-1.62-1.65-1.72-1.65-.35-.88-.35-.88l-.7-.53-.77-1.93.42-.39.6,1.12.42.95.56.74.04-1.48.25-.49.18,1.34.74.49.74,1.37.74.63.28.74,1.02.46.81,2.39.14.42,1.16.35,1.79,3.27-.11.95.53.84.04.49.56.7.84.04.98-.56,2.42-.77.6-.63,2-.32.6-1.12,1.76-.42v-.77l.95-.14v-.7l.77-.32.25-1.19.56.07v-.63l.63-.49v-1.23l-1.48-1.16-1.3-.11-.6-2.14-.84,1.02-.53,1.19s-1.9.42-2,.35-1.55-1.93-1.55-1.93l-1.41-2.11-.7-.98,1.16-.81.7.25.84,1.62s.35.7.32.6c-.04-.11.6-.35.6-.35l1.51,1.09.84-.18,1.27-.53.46.56.25.6s1.72.6,1.83.6,2.81-.25,2.81-.25l2.53-.21.49.7.88.42.28.39.63-.04v.56l1.3.14-.81.81.81.6.42.67,1.19-.21.7-1.44.18,1.12-.28,1.69,2.25,4.64.42.56.42,1.9.77.81.25.74v.56l.98,1.27.74-.28v-.77l1.44-1.27-.39-.91.39-1.23-.18-1.12.18-2.32,1.05-.25.7-1.12,1.44-1.76,1.37-1.19-.21-.63.81-.88.91.6,1.48-.56.84.53v.84l1.58,1.51.81.98v1.51l.39.67,1.27-.84.18-.77.63.84.42,2,.74,1.16.18.35-.39.49.39.84v3.09l.77.25,1.27,1.9v1.41l.49,1.48,1.34,1.05.88.56.39-.35-.7-1.79-.04-1.58-1.09-1.16-1.3-1.48-.95-1.9-.11-1.27.25-1.27-.25-.98.46-.67.39.42.18.77s.77.18.77.07.91.67.91.67l.21.91.74.32.53.6v.98l.46.46,1.09-.88.25-.84,1.05-.35.81-.6v-1.72l-.32-2.04-1.51-1.55-.67-.25-.49-.91-.81-1.05.11-1.27.77-.46.46-1.02,1.34-.32.32.74.11,1.27-.42.67.42.95.88.25.46-1.3-.49-.56-.42-.98.67-1.05,3.34-1.34,1.51-1.55,1.27-2.64v-1.19l.74-1.09v-1.72l-1.05-.04.49-1.3-.95-1.16-.74-.46s-1.41-1.55-1.48-1.69-.11-1.3-.11-1.3l.84-1.16.88-.25.11-.81-1.12.18-.67-.28-.35.84-1.41-.14-.42-.63-.77-.98.32-.53.7.32.18-.63.42-.39.6-1.05.84-.28-.11.67-.21.74.56.7.6-.7,1.16-.35.91.18-.07.7.11.98.98.42.74.32v.67l.18.98.21,1.05.53.49,1.23-.53.6-1.16v-1.41l-1.69-1.62-1.02-.91-.11-.81.77-.84-.07-.88.18-1.09.42-.39-.28-.35.32-.63.63.63,1.37-.35.77-2.11.25-2.35v-.95l.63-2.04-1.37-3.8.04-1.44-.81-.56-.35-1.02-1.51-1.09-.98.04.21.77-.67.18-1.3-.88-1.16.14.77-1.16.49-1.3.53-1.79.46-3.49,1.44-.69h1.86l1.02-.39.28-.98h1.3l.91.74,1.55-.74.91-.74-1.12-.18v-1.41l.11-1.76s1.69-1.97,1.69-1.86.42,1.58.42,1.58l1.05.74.42-.63v-1.09l.61-.04v-.73l-.59-.49.33-.82,1.22-.14-.59.75.42,1.22.16,1.08-.87.61-.14,2.93-.96,2.25-.52.21.73.98-.33.8.28,1.29,2.18,2.93,1.78,2.86.56.61.09-1.24.23-.91-.66-1.27.28-.66-.12-1.19.7-.13.33-.53-.73-1.99v-.8l.63.7.3-.33-.54-.82s-.35-.21-.42-.23c-.07-.02-.61-.84-.61-.84l-.33-.73-.59.42-.28-.59.05-1.08-.66-2.11.68-.37.68.54.28-1.66.4-.28.23,1.5.47-.68.14-.77,1.03-.21,1.05.61v-.89l1.57-4.22,1.1-1.12.98.23v-.94l-1.27-.37-.59-.26-.89-1.38h-1.38l1.57-.98.09-1.5-.73-1.03.37-.84.35,1.01.82.59.96-.61.84.75.84.52.23-.77.59.73,1.27.07.19-.26-.89-1.34Zm-103.67,32.37l-1.79.11-.84.56.18.63.67.11v1.79l-.67.07-.46-1.19-1.05,1.3.42,1.58-.53.63-.91.49-.42-.88-1.16.56-1.62,1.02-.67-.25-1.12-.25.53-.84,1.02-.6,1.12-.74.74-.84-.28-2,1.16-1.05-.11-1.02-1.34-.77v-1.86s1.37-1.19,1.48-1.12.95-.88.95-.88l.18-1.65.98-.81h.98l.18.28.04,1.02-1.65,1.86-.28.74.28,1.55.25,1.41,1.3.49,1.58-.81,1.16-.25,1.69.81-1.97.81Z"/>
      <polygon class="cls-1" points="157.54 106.27 155.71 108.48 154.44 109.74 152.94 110.02 152.57 111.15 152.9 113.63 151.82 114.66 151.82 116.96 152.62 118.04 154.07 118.04 155.01 116.11 157.21 111.24 156.97 110.21 157.91 109.55 157.91 108.01 157.54 106.27"/>
      <polygon class="cls-1" points="194.88 90.34 196.29 90.34 199.24 93.58 200.46 94.47 202.01 96.34 202.94 97.84 203.65 98.4 203.41 99.85 203.36 101.31 201.96 100.79 200.46 99.39 198.49 95.4 197.69 93.9 196.76 93.11 195.26 91.19 194.88 90.34"/>
      <polygon class="cls-1" points="203.97 101.87 203.36 102.76 206.18 103.51 210.39 104.63 210.77 103.93 209.78 103.56 209.13 102.53 207.68 102.2 206.13 102.53 205 101.87 203.97 101.87"/>
      <polygon class="cls-1" points="212.74 88.8 211.71 90.67 210.77 90.95 209.97 92.5 208.57 93.29 208.57 94.42 207.07 94.65 206.36 95.26 206.78 96.25 207.68 98.54 208.8 98.54 210.77 99.01 211.33 100.14 212.08 99.29 212.97 97.23 212.97 96.25 214.05 95.31 214.75 95.03 213.72 93.86 213.44 91.42 214.05 91.33 214.75 90.58 212.74 88.8"/>
      <path class="cls-1" d="m220.14,94.47l-1.27.61-2.16-.61-1.22,1.36-.28,1.45-.47,1.22.28,1.08-.09,1.73c.47.47.7.19.7.19l.75-1.69-.23-1.55.75,1.22.09,1.36.94.23.61-.94-.66-2.11-1.78-1.35.56-1.17h1.59l1.27.05.61-1.08Z"/>
      <path class="cls-1" d="m214.75,76.85l-.23,3.23,1.12,1.5.98,1.87.82,1.83v1.27l.87,2.25,2.34,1v-1l.52-.42-.28-1.87-.98-1.41-.09-1.77-1.5-1.65s-1.55-.7-1.69-.75c-.14-.05-.47-1.36-.47-1.36v-2.72h-1.41Z"/>
      <polygon class="cls-1" points="224.92 96.76 226.51 98.21 225.43 98.78 226 99.48 226.23 100.46 227.12 100.14 229.14 101.03 230.92 102.1 230.92 103.7 230.92 104.63 232.6 106.23 234.62 105.9 234.15 105.1 235.7 104.63 236.26 104.31 237.24 105.57 237.24 106.51 237.9 107.77 239.87 108.34 240.76 107.45 239.02 106.04 238.32 104.63 237.76 103.25 239.12 102.95 241.23 103.04 242.49 101.31 241.6 100.98 240.9 102.1 238.98 102.55 236.91 101.87 236.35 100.6 233.35 99.34 230.35 97.28 229.42 98.5 228.29 99.29 227.4 98.02 227.45 96.43 226.28 96.43 224.92 96.76"/>
      <path class="cls-1" d="m207.58,118.69l-.52,3-.33,2.16v3.23l.33,1.12-.98,1.73-.89.75.66.89,1.22.28,2.44-.8,2.62.37.84-1.17,2.48-.61.61.52,1.38-.7,1.76-.09,1.45,1.27.28,1.64v1.22l.52.56.56-.89,1.83-1.45-.33.98-.89.98-1.27,1.31.28.47.89-.23.42-.89.89-.89-.42,1.41.14.33.05,1.27-.37.89.61.98,1.59.8,1.55-.19.61,1.17,1.5-.98.61-.37,1.31.05,1.45-2.25.47-.94,2.58-2.39,2.48-4.64.42-2.11v-2.48l-.94-1.69-.09-1.22-.56-.84-.33-1.83-1.36-1.5.19-1.41s-.09-1.5-.23-1.59c-.14-.09.19-1.69.19-1.69l-1.12-.52v-3.37l-.7-.47-.52.98-.94,2.76-.7,2.81-.52.89-.84.05-1.12-1.31-1.64-1.87.66-1.55,1.03-1.22-.56-.66-.8.37-1.69-.8-2.16.47s-.89,1.5-.94,1.36c-.05-.14-.61.8-.61.8l.33.89-1.73.52.47-1.03-.75-1.31-1.17.8-1.41,1.22v.84l-.75-.14-.14,1.36-.33-.94-.19-.56-.84.8.14,1.31-.7.66-1.22.7-1.59-.05-2.48,1.08-2.16,1.59Z"/>
      <polygon class="cls-1" points="225.2 141.61 226.28 142.4 228.34 142 227.59 143.2 226.98 144.6 225.67 145.54 225.2 145.12 224.73 144.09 225.29 143.57 225.39 142.5 225.2 141.61"/>
      <polygon class="cls-1" points="247.18 145.87 243.94 148.68 239.59 151.02 239.77 151.73 241.74 152.2 243.71 151.49 247.36 148.02 248.49 146.71 247.79 145.54 247.18 145.87"/>
      <path class="cls-1" d="m250.93,138.23l.37,2.3-.37,1.27.19,1.03-1.08.37-.94,1.12.33.7.42.84-.14.7,1.59-1.03.42-.84.98-.47,1.08-1.12v-.7s-1.08.19-1.08,0-.09-1.78-.09-1.78l-.42-.52-.37-1.27-.37-1.03-.52.42Z"/>
      <polygon class="cls-1" points="222.11 45.55 222.76 47.37 222.11 48.4 221.64 49.2 222.95 50.28 223.51 52.11 223.51 55.25 222.2 56.09 221.92 57.45 220.05 57.92 219.34 58.62 218.59 59.74 219.06 60.45 218.27 60.82 218.59 61.99 219.44 63.16 220.23 62.51 220.14 61.15 221.4 60.49 224.03 59.04 225.81 57.35 225.2 54.12 225.34 53 223.98 51.22 223.94 50.19 222.9 49.58 223.23 48.83 224.92 49.58 224.97 49.11 224.5 48.26 226.18 47.84 226.18 46.81 226.18 45.83 225.62 45.97 224.92 46.72 223.98 46.44 222.9 45.55 222.11 45.55"/>
      <polygon class="cls-1" points="217.23 33.27 217.23 34.16 217.61 34.68 217.84 35.75 218.92 37.53 219.39 38.24 219.39 39.41 220.19 40.67 221.17 42.08 221.36 43.39 222.22 44.7 222.44 43.58 221.5 41.75 220.7 39.74 221.92 40.25 220.89 38.75 219.25 36.46 218.69 34.96 217.84 34.07 217.52 33.27 217.23 33.27"/>
    </g>
  </g>
</svg>