<svg xmlns="http://www.w3.org/2000/svg" viewBox="0 0 1205.61 354.15"><defs><style>.cls-1{fill:#cecece;}.cls-2{fill:#007a87;}.cls-3{fill:#a1c98a;}.cls-4{fill:#6bb248;}.cls-5{fill:#9dca87;}.cls-6{fill:#6fa5b0;}</style></defs><g id="Capa_2" data-name="Capa 2"><g id="Capa_1-2" data-name="Capa 1"><path class="cls-1" d="M1205.61,313.77c0,22.3-269.89,40.38-602.8,40.38S0,336.07,0,313.77,269.89,273.4,602.81,273.4,1205.61,291.48,1205.61,313.77Z"/><path class="cls-2" d="M617.22,275.67v26.4l27.27,24.22,11.11-14.36-38.38-36.26m4-82.73c-1.34,3.4-2.7,6.78-4,10.18V257q11.63-32,23.23-64Zm-67.68,119c-24.24,7.18-40.4-13.33-40.4-13.33s-.15-.27-.41-.77A163.4,163.4,0,0,1,497,309.71a74.21,74.21,0,0,0,18,15.8,37.21,37.21,0,0,0,10.76,5.12,46.1,46.1,0,0,0,10.88,1c7.94.1,16,.19,23.69-1.75,10.26-2.57,19.08-8.5,26.59-16.12V280.44c-4.19,8.34-15,26.06-33.33,31.49m33.33-121.6V143.28a45.84,45.84,0,0,0-8.84-10.15c-14-12-34.93-14.68-51.73-7.4-17.9,7.76-27.88,25.71-26.42,45.46,0,.39.06.77.1,1.16,1.56,15.89,10.27,30.55,22.14,41-16.44,8.1-29.69,23-35.1,40.74A62.71,62.71,0,0,0,485,281.18,91.93,91.93,0,0,0,506.3,261c2-12.67,9.62-25.92,29.1-35.21l51.51,48.37V247.77L555.54,217.5a60.69,60.69,0,0,0,31.37-27.17M571.73,181c-4.53,11.47-15.09,19.92-26.86,23.09a6.51,6.51,0,0,1-3,.28,6.6,6.6,0,0,1-2.46-1.35c-8.55-6.45-15.87-15.32-19-25.5a35.36,35.36,0,0,1-1.51-8.29c-1.45-23.9,28.63-39.58,46.22-22.5,8.8,8.53,11.07,22.81,6.54,34.27"/><path class="cls-3" d="M617.22,257l-5.05,13.92,5.05,4.77v26.4l-13.11-11.66a112.21,112.21,0,0,1-17.2,23.37V280.44c1.37-2.69,2-4.41,2-4.41l-2-1.9V247.77l9.1,8.77q10.59-26.72,21.21-53.43Z"/><path class="cls-4" d="M588.94,276s-.66,1.71-2,4.41v-6.31Z"/><path class="cls-4" d="M612.17,270.9c1.68-4.63,3.36-9.29,5.05-13.92v18.69l-5.05-4.77"/><path class="cls-4" d="M604.11,290.41l13.11,11.66v28.32H586.91V313.78a112.21,112.21,0,0,0,17.2-23.37"/><path class="cls-5" d="M589.51,185.1a55.3,55.3,0,0,1-2.6,5.23V143.28a42.12,42.12,0,0,1,6.87,21.18,47.9,47.9,0,0,1-4.27,20.64"/><path class="cls-4" d="M800.05,9.33V330.39H769.74V185.76H617.22v17.35Q606.62,229.83,596,256.54l-9.1-8.77V190.33a54.14,54.14,0,0,0,2.6-5.23,47.9,47.9,0,0,0,4.27-20.64,42.12,42.12,0,0,0-6.87-21.18V9.33h30.31v143.6H769.74V9.33Z"/><path class="cls-6" d="M512.77,297.83A163.4,163.4,0,0,1,497,309.71c-.65-.83-1.27-1.67-1.9-2.53a59.09,59.09,0,0,1-10.14-26A92.22,92.22,0,0,0,506.31,261c-2.77,17.15,4.63,33.21,6.46,36.86"/><path class="cls-2" d="M512.67,249.87h38.39a162.16,162.16,0,0,1-38.29,48c-1.83-3.65-9.23-19.71-6.46-36.86,4.9-6.62,6.36-11.1,6.36-11.1"/><path class="cls-2" d="M280.36,144.22C266.21,246.79,344,289.88,344,289.88s47.48,29.74,103,10.26c16.26-5.7,28.63-12.37,38-19a59.09,59.09,0,0,0,10.14,26c.63.86,1.25,1.7,1.9,2.53-17.86,11.86-31.83,16.07-31.83,16.07-39.39,19.49-102,4.1-102,4.1s-91.91-26.67-113.13-118S282.37,61.13,282.37,61.13,337.93-11.7,428.84,1.63,552.58,89.34,552.58,89.34H514.19S478.83,28.81,398,30.87c0,0-103.52,10.77-117.66,113.35"/></g></g></svg>